<svg xmlns="http://www.w3.org/2000/svg" xmlns:xlink="http://www.w3.org/1999/xlink" width="500" zoomAndPan="magnify" viewBox="0 0 375 374.999991" height="500" preserveAspectRatio="xMidYMid meet" version="1.0"><defs><clipPath id="e61e765951"><path d="M 37.5 37.5 L 225 37.5 L 225 225 L 37.5 225 Z M 37.5 37.5 " clip-rule="nonzero"/></clipPath><clipPath id="645ae8bf40"><path d="M 131.25 37.5 C 79.472656 37.5 37.5 79.472656 37.5 131.25 C 37.5 183.027344 79.472656 225 131.25 225 C 183.027344 225 225 183.027344 225 131.25 C 225 79.472656 183.027344 37.5 131.25 37.5 Z M 131.25 37.5 " clip-rule="nonzero"/></clipPath><clipPath id="0217c61cdf"><path d="M 150 150 L 337.5 150 L 337.5 337.5 L 150 337.5 Z M 150 150 " clip-rule="nonzero"/></clipPath><clipPath id="abe3f65f72"><path d="M 243.75 150 C 191.972656 150 150 191.972656 150 243.75 C 150 295.527344 191.972656 337.5 243.75 337.5 C 295.527344 337.5 337.5 295.527344 337.5 243.75 C 337.5 191.972656 295.527344 150 243.75 150 Z M 243.75 150 " clip-rule="nonzero"/></clipPath><clipPath id="fd5342a618"><path d="M 37.5 243.75 L 131.25 243.75 L 131.25 337.5 L 37.5 337.5 Z M 37.5 243.75 " clip-rule="nonzero"/></clipPath><clipPath id="b8123f95b2"><path d="M 84.375 243.75 C 58.488281 243.75 37.5 264.738281 37.5 290.625 C 37.5 316.511719 58.488281 337.5 84.375 337.5 C 110.261719 337.5 131.25 316.511719 131.25 290.625 C 131.25 264.738281 110.261719 243.75 84.375 243.75 Z M 84.375 243.75 " clip-rule="nonzero"/></clipPath><clipPath id="13f2b031fc"><path d="M 243.75 37.5 L 337.5 37.5 L 337.5 131.25 L 243.75 131.25 Z M 243.75 37.5 " clip-rule="nonzero"/></clipPath><clipPath id="afccde9d1b"><path d="M 290.625 37.5 C 264.738281 37.5 243.75 58.488281 243.75 84.375 C 243.75 110.261719 264.738281 131.25 290.625 131.25 C 316.511719 131.25 337.5 110.261719 337.5 84.375 C 337.5 58.488281 316.511719 37.5 290.625 37.5 Z M 290.625 37.5 " clip-rule="nonzero"/></clipPath></defs><rect x="-37.5" width="450" fill="#ffffff" y="-37.499999" height="449.999989" fill-opacity="1"/><rect x="-37.5" width="450" fill="#ffffff" y="-37.499999" height="449.999989" fill-opacity="1"/><g clip-path="url(#e61e765951)"><g clip-path="url(#645ae8bf40)"><path fill="#283d5e" d="M 37.5 37.5 L 225 37.5 L 225 225 L 37.5 225 Z M 37.5 37.5 " fill-opacity="1" fill-rule="nonzero"/></g></g><g clip-path="url(#0217c61cdf)"><g clip-path="url(#abe3f65f72)"><path fill="#283d5e" d="M 150 150 L 337.5 150 L 337.5 337.5 L 150 337.5 Z M 150 150 " fill-opacity="1" fill-rule="nonzero"/></g></g><g clip-path="url(#fd5342a618)"><g clip-path="url(#b8123f95b2)"><path fill="#283d5e" d="M 37.5 243.75 L 131.25 243.75 L 131.25 337.5 L 37.5 337.5 Z M 37.5 243.75 " fill-opacity="1" fill-rule="nonzero"/></g></g><g clip-path="url(#13f2b031fc)"><g clip-path="url(#afccde9d1b)"><path fill="#283d5e" d="M 243.75 37.5 L 337.5 37.5 L 337.5 131.25 L 243.75 131.25 Z M 243.75 37.5 " fill-opacity="1" fill-rule="nonzero"/></g></g></svg>